<svg viewBox="0 0 80 80" xmlns="http://www.w3.org/2000/svg">
  <!-- Gradient definitions -->
  <defs>
    <linearGradient id="neonGradient" x1="0%" y1="0%" x2="100%" y2="100%">
      <stop offset="0%" style="stop-color:#64748B;stop-opacity:1"/>
      <stop offset="33%" style="stop-color:#475569;stop-opacity:1"/>
      <stop offset="66%" style="stop-color:#334155;stop-opacity:1"/>
      <stop offset="100%" style="stop-color:#1E293B;stop-opacity:1"/>
    </linearGradient>
    <linearGradient id="holographicGradient" x1="0%" y1="0%" x2="100%" y2="100%">
      <stop offset="0%" style="stop-color:#FFFFFF;stop-opacity:1"/>
      <stop offset="50%" style="stop-color:#F0F9FF;stop-opacity:1"/>
      <stop offset="100%" style="stop-color:#E0E7FF;stop-opacity:1"/>
    </linearGradient>
    <filter id="glow">
      <feGaussianBlur stdDeviation="3" result="coloredBlur"/>
      <feMerge>
        <feMergeNode in="coloredBlur"/>
        <feMergeNode in="SourceGraphic"/>
      </feMerge>
    </filter>
  </defs>

  <!-- Background with subtle gradient -->
  <circle cx="40" cy="40" r="35" fill="url(#neonGradient)" opacity="0.05"/>

  <!-- Main document with glassmorphism effect -->
  <rect x="25" y="20" width="30" height="38" rx="4"
        fill="url(#holographicGradient)"
        stroke="url(#neonGradient)"
        stroke-width="2"
        opacity="0.9"/>

  <!-- Holographic shimmer effect -->
  <rect x="27" y="22" width="26" height="34" rx="3"
        fill="none"
        stroke="url(#neonGradient)"
        stroke-width="1"
        opacity="0.3"/>

  <!-- Document corner fold -->
  <path d="M47 20 L47 28 L55 28 Z"
        fill="url(#neonGradient)"
        opacity="0.1"/>

  <!-- Cyber-style data visualization bars -->
  <rect x="30" y="28" width="12" height="2" rx="1" fill="#64748B" opacity="0.8"/>
  <rect x="30" y="32" width="8" height="2" rx="1" fill="#475569" opacity="0.7"/>
  <rect x="30" y="36" width="15" height="2" rx="1" fill="#334155" opacity="0.6"/>
  <rect x="30" y="40" width="10" height="2" rx="1" fill="#1E293B" opacity="0.5"/>
  <rect x="30" y="44" width="14" height="2" rx="1" fill="#64748B" opacity="0.4"/>
  <rect x="30" y="48" width="7" height="2" rx="1" fill="#475569" opacity="0.3"/>

  <!-- Floating geometric elements -->
  <circle cx="15" cy="25" r="3" fill="#64748B" opacity="0.6" filter="url(#glow)"/>
  <rect x="12" y="45" width="6" height="6" rx="1" fill="#475569" opacity="0.5" transform="rotate(45 15 48)"/>
  <polygon points="65,15 70,25 60,25" fill="#334155" opacity="0.6"/>
  <circle cx="65" cy="55" r="2.5" fill="#1E293B" opacity="0.7"/>

  <!-- Vaporwave-style grid lines -->
  <g opacity="0.2">
    <line x1="0" y1="65" x2="80" y2="65" stroke="url(#neonGradient)" stroke-width="1"/>
    <line x1="0" y1="70" x2="80" y2="70" stroke="url(#neonGradient)" stroke-width="0.5"/>
    <line x1="10" y1="60" x2="10" y2="80" stroke="url(#neonGradient)" stroke-width="0.5"/>
    <line x1="70" y1="60" x2="70" y2="80" stroke="url(#neonGradient)" stroke-width="0.5"/>
  </g>

  <!-- Glitch-style accent -->
  <rect x="56" y="35" width="8" height="1" fill="#64748B" opacity="0.8"/>
  <rect x="57" y="36" width="6" height="1" fill="#475569" opacity="0.6"/>
  <rect x="58" y="37" width="7" height="1" fill="#334155" opacity="0.4"/>

  <!-- Floating particles -->
  <circle cx="12" cy="35" r="1" fill="#64748B" opacity="0.5"/>
  <circle cx="68" cy="30" r="1.5" fill="#475569" opacity="0.4"/>
  <circle cx="15" cy="60" r="1" fill="#334155" opacity="0.6"/>
  <circle cx="68" cy="45" r="1" fill="#1E293B" opacity="0.5"/>
</svg>
